<svg width="245" height="438" viewBox="0 0 245 438" fill="none" xmlns="http://www.w3.org/2000/svg">
<path d="M123.6 26.1C122.9 23.8 121.7 20.2 120.5 16.9L134 15.3C135.5 23 137.9 30.9 140.3 37.3C143.4 45.7 148.1 54.3 151.4 58.9C153.1 61.4 154.9 63.5 156.7 65.6L150.6 74.5C145 73.4 132.3 72.1 123.9 71.4L124.9 60.8C129.8 61.3 136.4 61.8 139.5 62.1C135.9 56.2 131.5 47.8 128.4 39.5C126.2 34 124.8 29.4 123.6 26.1ZM87.2 30.8C105.9 33 121.1 32.9 133.1 31.6C142 30.5 150.8 28.8 158.7 26.4L160.2 38.9C153.6 40.8 145 42.3 137 43.2C123.7 44.8 107.9 45.2 87.4 43.5L87.2 30.8ZM107.3 64.8C104 69.6 102.4 74 102.4 78.3C102.4 86.8 109.9 90.3 123.6 90.4C134.5 90.4 143.3 89.3 150.3 87.9L149.6 100.6C143.9 101.6 134.9 102.9 122.8 102.9C102.3 102.9 89.5 95 89.5 80.5C89.5 74.4 91.4 68.7 94.8 61.9L107.3 64.8Z" fill="black"/>
<path d="M109.1 317.7C107.7 322.6 105.6 332.9 105 338.5C109.8 330.8 118.6 322.3 129.8 322.3C143.7 322.3 154.5 336 154.5 358C154.5 386.3 137.2 399.7 110.7 404.6L103.1 393C125.4 389.6 141 382.2 141 358C141 342.6 135.8 334 127.5 334C115.7 334 105.3 351.8 104.9 364.9C104.7 367.7 104.8 370.9 105.3 375.5L93 376.4C92.4 372.5 91.8 366.4 91.8 359.7C91.8 350.3 93.1 338 94.6 327.6C95 323.9 95.3 319.9 95.4 317.2L109.1 317.7Z" fill="black"/>
<path d="M151 382.15C150.65 383.05 150.4 384.15 150.2 384.8C149.7 386.9 149.05 390.2 149 392.95C152.55 387.05 159.05 384.15 165.05 384.15C173.6 384.15 178.5 389.3 178.5 395.95C178.5 403.15 173.95 409.3 164.85 409.3C160.05 409.3 154.95 406.85 152.4 401.7L155.6 397.1C157.55 400.8 160.25 403.35 164.6 403.35C170.3 403.35 172.6 400.4 172.6 396C172.6 392.3 170.4 389.4 164.75 389.4C156.25 389.4 150.95 395.95 150.05 401.35C149.9 402.05 149.85 402.55 149.9 403.3C149.9 404.05 150.15 406.55 150.35 407.65L145 408.35C144.1 405.5 143.45 401.1 143.45 397.05C143.45 392.05 144.15 386.75 144.5 384.25C144.55 383.35 144.6 382.3 144.55 381.7L151 382.15ZM165.4 379.45C165.9 382.45 166.75 388.7 166.75 394.9C166.75 402.7 165.15 410.65 158.3 415.7L152.85 412.55C159.95 408.2 161.1 400.8 161.1 394.4C161.1 389.45 160.6 385.05 160.05 382.25C159.85 381.3 159.6 380.45 159.3 379.55L165.4 379.45Z" fill="black"/>
<circle cx="122.5" cy="213.5" r="122.5" fill="url(#paint0_linear_33_74)"/>
<defs>
<linearGradient id="paint0_linear_33_74" x1="-1.62978e-06" y1="213" x2="245" y2="213" gradientUnits="userSpaceOnUse">
<stop offset="0.61" stop-color="white"/>
<stop offset="0.785" stop-color="white" stop-opacity="0"/>
</linearGradient>
</defs>
</svg>
